<mxfile host="app.diagrams.net" modified="2022-10-28T09:34:03.268Z" agent="5.0 (Macintosh; Intel Mac OS X 10_15_7) AppleWebKit/537.36 (KHTML, like Gecko) Chrome/106.0.0.0 Safari/537.36" etag="ixpTlrNJ5SuvqsfNfQW2" version="20.4.1" type="github">
  <diagram id="igIkLWl_I8CNIf3-y0DH" name="第 1 页">
    <mxGraphModel dx="1198" dy="688" grid="1" gridSize="10" guides="1" tooltips="1" connect="1" arrows="1" fold="1" page="1" pageScale="1" pageWidth="827" pageHeight="1169" math="0" shadow="0">
      <root>
        <mxCell id="0" />
        <mxCell id="1" parent="0" />
        <mxCell id="1S4eVNWtwclJiUYLLemy-1" value="EZR推送功能" style="rounded=0;whiteSpace=wrap;html=1;" vertex="1" parent="1">
          <mxGeometry x="490" y="90" width="120" height="30" as="geometry" />
        </mxCell>
        <mxCell id="1S4eVNWtwclJiUYLLemy-2" value="标&lt;br&gt;签&lt;br&gt;推&lt;br&gt;送" style="rounded=0;whiteSpace=wrap;html=1;" vertex="1" parent="1">
          <mxGeometry x="170" y="170" width="40" height="120" as="geometry" />
        </mxCell>
        <mxCell id="1S4eVNWtwclJiUYLLemy-3" value="营&lt;br&gt;销&lt;br&gt;人&lt;br&gt;群&lt;br&gt;推&lt;br&gt;送" style="rounded=0;whiteSpace=wrap;html=1;" vertex="1" parent="1">
          <mxGeometry x="870" y="170" width="40" height="120" as="geometry" />
        </mxCell>
        <mxCell id="1S4eVNWtwclJiUYLLemy-4" value="C&lt;br&gt;D&lt;br&gt;P&lt;br&gt;人&lt;br&gt;群&lt;br&gt;推&lt;br&gt;送" style="rounded=0;whiteSpace=wrap;html=1;" vertex="1" parent="1">
          <mxGeometry x="530" y="170" width="40" height="120" as="geometry" />
        </mxCell>
        <mxCell id="1S4eVNWtwclJiUYLLemy-8" value="" style="endArrow=classic;html=1;rounded=0;exitX=0.5;exitY=1;exitDx=0;exitDy=0;entryX=0.5;entryY=0;entryDx=0;entryDy=0;" edge="1" parent="1" source="1S4eVNWtwclJiUYLLemy-1" target="1S4eVNWtwclJiUYLLemy-2">
          <mxGeometry width="50" height="50" relative="1" as="geometry">
            <mxPoint x="170" y="220" as="sourcePoint" />
            <mxPoint x="220" y="170" as="targetPoint" />
            <Array as="points">
              <mxPoint x="550" y="140" />
              <mxPoint x="190" y="140" />
            </Array>
          </mxGeometry>
        </mxCell>
        <mxCell id="1S4eVNWtwclJiUYLLemy-9" value="" style="endArrow=classic;html=1;rounded=0;entryX=0.5;entryY=0;entryDx=0;entryDy=0;exitX=0.5;exitY=1;exitDx=0;exitDy=0;" edge="1" parent="1" source="1S4eVNWtwclJiUYLLemy-1" target="1S4eVNWtwclJiUYLLemy-3">
          <mxGeometry width="50" height="50" relative="1" as="geometry">
            <mxPoint x="400" y="130" as="sourcePoint" />
            <mxPoint x="430" y="230" as="targetPoint" />
            <Array as="points">
              <mxPoint x="550" y="140" />
              <mxPoint x="890" y="140" />
            </Array>
          </mxGeometry>
        </mxCell>
        <mxCell id="1S4eVNWtwclJiUYLLemy-10" value="" style="endArrow=classic;html=1;rounded=0;entryX=0.5;entryY=0;entryDx=0;entryDy=0;exitX=0.5;exitY=1;exitDx=0;exitDy=0;" edge="1" parent="1" source="1S4eVNWtwclJiUYLLemy-1" target="1S4eVNWtwclJiUYLLemy-4">
          <mxGeometry width="50" height="50" relative="1" as="geometry">
            <mxPoint x="360" y="280" as="sourcePoint" />
            <mxPoint x="420" y="170" as="targetPoint" />
          </mxGeometry>
        </mxCell>
        <mxCell id="1S4eVNWtwclJiUYLLemy-12" value="当&lt;br&gt;前&lt;br&gt;生&lt;br&gt;效&lt;br&gt;配&lt;br&gt;置&lt;br&gt;管&lt;br&gt;理" style="rounded=0;whiteSpace=wrap;html=1;" vertex="1" parent="1">
          <mxGeometry x="80" y="340" width="40" height="120" as="geometry" />
        </mxCell>
        <mxCell id="1S4eVNWtwclJiUYLLemy-13" value="推&lt;br&gt;送&lt;br&gt;明&lt;br&gt;细&lt;br&gt;管&lt;br&gt;理" style="rounded=0;whiteSpace=wrap;html=1;" vertex="1" parent="1">
          <mxGeometry x="250" y="340" width="40" height="120" as="geometry" />
        </mxCell>
        <mxCell id="1S4eVNWtwclJiUYLLemy-15" value="推&lt;br&gt;送&lt;br&gt;明&lt;br&gt;细&lt;br&gt;管&lt;br&gt;理" style="rounded=0;whiteSpace=wrap;html=1;" vertex="1" parent="1">
          <mxGeometry x="620" y="340" width="40" height="120" as="geometry" />
        </mxCell>
        <mxCell id="1S4eVNWtwclJiUYLLemy-17" value="推&lt;br&gt;送&lt;br&gt;明&lt;br&gt;细&lt;br&gt;管&lt;br&gt;理" style="rounded=0;whiteSpace=wrap;html=1;" vertex="1" parent="1">
          <mxGeometry x="920" y="340" width="40" height="120" as="geometry" />
        </mxCell>
        <mxCell id="1S4eVNWtwclJiUYLLemy-19" value="当&lt;br&gt;前&lt;br&gt;生&lt;br&gt;效&lt;br&gt;配&lt;br&gt;置&lt;br&gt;管&lt;br&gt;理" style="rounded=0;whiteSpace=wrap;html=1;" vertex="1" parent="1">
          <mxGeometry x="450" y="340" width="40" height="120" as="geometry" />
        </mxCell>
        <mxCell id="1S4eVNWtwclJiUYLLemy-20" value="营&lt;br&gt;销&lt;br&gt;人&lt;br&gt;群&lt;br&gt;推&lt;br&gt;送" style="rounded=0;whiteSpace=wrap;html=1;" vertex="1" parent="1">
          <mxGeometry x="820" y="340" width="40" height="120" as="geometry" />
        </mxCell>
        <mxCell id="1S4eVNWtwclJiUYLLemy-21" value="新&lt;br&gt;增&lt;br&gt;配&lt;br&gt;置&lt;br&gt;标&lt;br&gt;签" style="rounded=0;whiteSpace=wrap;html=1;" vertex="1" parent="1">
          <mxGeometry x="10" y="520" width="20" height="120" as="geometry" />
        </mxCell>
        <mxCell id="1S4eVNWtwclJiUYLLemy-23" value="推&lt;br&gt;送&lt;br&gt;配&lt;br&gt;置&lt;br&gt;标&lt;br&gt;签" style="rounded=0;whiteSpace=wrap;html=1;" vertex="1" parent="1">
          <mxGeometry x="40" y="520" width="20" height="120" as="geometry" />
        </mxCell>
        <mxCell id="1S4eVNWtwclJiUYLLemy-24" value="推&lt;br&gt;送&lt;br&gt;其&lt;br&gt;它&lt;br&gt;标&lt;br&gt;签" style="rounded=0;whiteSpace=wrap;html=1;" vertex="1" parent="1">
          <mxGeometry x="70" y="520" width="20" height="120" as="geometry" />
        </mxCell>
        <mxCell id="1S4eVNWtwclJiUYLLemy-25" value="修&lt;br&gt;改&lt;br&gt;推&lt;br&gt;送&lt;br&gt;频&lt;br&gt;率" style="rounded=0;whiteSpace=wrap;html=1;" vertex="1" parent="1">
          <mxGeometry x="100" y="520" width="20" height="120" as="geometry" />
        </mxCell>
        <mxCell id="1S4eVNWtwclJiUYLLemy-26" value="修&lt;br&gt;改&lt;br&gt;配&lt;br&gt;置&lt;br&gt;标&lt;br&gt;签" style="rounded=0;whiteSpace=wrap;html=1;" vertex="1" parent="1">
          <mxGeometry x="130" y="520" width="20" height="120" as="geometry" />
        </mxCell>
        <mxCell id="1S4eVNWtwclJiUYLLemy-27" value="删&lt;br&gt;除&lt;br&gt;配&lt;br&gt;置&lt;br&gt;标&lt;br&gt;签" style="rounded=0;whiteSpace=wrap;html=1;" vertex="1" parent="1">
          <mxGeometry x="160" y="520" width="20" height="120" as="geometry" />
        </mxCell>
        <mxCell id="1S4eVNWtwclJiUYLLemy-28" value="搜&lt;br&gt;索&lt;br&gt;推&lt;br&gt;送&lt;br&gt;明&lt;br&gt;细&lt;br&gt;列&lt;br&gt;表" style="rounded=0;whiteSpace=wrap;html=1;" vertex="1" parent="1">
          <mxGeometry x="190" y="520" width="20" height="120" as="geometry" />
        </mxCell>
        <mxCell id="1S4eVNWtwclJiUYLLemy-29" value="重&lt;br&gt;新&lt;br&gt;推&lt;br&gt;送&lt;br&gt;明&lt;br&gt;细&lt;br&gt;记&lt;br&gt;录" style="rounded=0;whiteSpace=wrap;html=1;" vertex="1" parent="1">
          <mxGeometry x="220" y="520" width="20" height="120" as="geometry" />
        </mxCell>
        <mxCell id="1S4eVNWtwclJiUYLLemy-30" value="查&lt;br&gt;看&lt;br&gt;推&lt;br&gt;送&lt;br&gt;明&lt;br&gt;细&lt;br&gt;详&lt;br&gt;情" style="rounded=0;whiteSpace=wrap;html=1;" vertex="1" parent="1">
          <mxGeometry x="250" y="520" width="20" height="120" as="geometry" />
        </mxCell>
        <mxCell id="1S4eVNWtwclJiUYLLemy-31" value="查&lt;br&gt;看&lt;br&gt;推&lt;br&gt;送&lt;br&gt;明&lt;br&gt;细&lt;br&gt;历&lt;br&gt;史" style="rounded=0;whiteSpace=wrap;html=1;" vertex="1" parent="1">
          <mxGeometry x="280" y="520" width="20" height="120" as="geometry" />
        </mxCell>
        <mxCell id="1S4eVNWtwclJiUYLLemy-32" value="暂&lt;br&gt;停&lt;br&gt;推&lt;br&gt;送" style="rounded=0;whiteSpace=wrap;html=1;" vertex="1" parent="1">
          <mxGeometry x="310" y="520" width="20" height="120" as="geometry" />
        </mxCell>
        <mxCell id="1S4eVNWtwclJiUYLLemy-33" value="启&lt;br&gt;动&lt;br&gt;推&lt;br&gt;送" style="rounded=0;whiteSpace=wrap;html=1;" vertex="1" parent="1">
          <mxGeometry x="340" y="520" width="20" height="120" as="geometry" />
        </mxCell>
        <mxCell id="1S4eVNWtwclJiUYLLemy-35" value="新&lt;br&gt;增&lt;br&gt;配&lt;br&gt;置&lt;br&gt;人&lt;br&gt;群" style="rounded=0;whiteSpace=wrap;html=1;" vertex="1" parent="1">
          <mxGeometry x="380" y="520" width="20" height="120" as="geometry" />
        </mxCell>
        <mxCell id="1S4eVNWtwclJiUYLLemy-36" value="推&lt;br&gt;送&lt;br&gt;配&lt;br&gt;置&lt;br&gt;人&lt;br&gt;群" style="rounded=0;whiteSpace=wrap;html=1;" vertex="1" parent="1">
          <mxGeometry x="410" y="520" width="20" height="120" as="geometry" />
        </mxCell>
        <mxCell id="1S4eVNWtwclJiUYLLemy-37" value="推&lt;br&gt;送&lt;br&gt;其&lt;br&gt;它&lt;br&gt;人&lt;br&gt;群" style="rounded=0;whiteSpace=wrap;html=1;" vertex="1" parent="1">
          <mxGeometry x="440" y="520" width="20" height="120" as="geometry" />
        </mxCell>
        <mxCell id="1S4eVNWtwclJiUYLLemy-38" value="修&lt;br&gt;改&lt;br&gt;推&lt;br&gt;送&lt;br&gt;频&lt;br&gt;率" style="rounded=0;whiteSpace=wrap;html=1;" vertex="1" parent="1">
          <mxGeometry x="470" y="520" width="20" height="120" as="geometry" />
        </mxCell>
        <mxCell id="1S4eVNWtwclJiUYLLemy-39" value="修&lt;br&gt;改&lt;br&gt;配&lt;br&gt;置&lt;br&gt;人&lt;br&gt;群" style="rounded=0;whiteSpace=wrap;html=1;" vertex="1" parent="1">
          <mxGeometry x="500" y="520" width="20" height="120" as="geometry" />
        </mxCell>
        <mxCell id="1S4eVNWtwclJiUYLLemy-40" value="删&lt;br&gt;除&lt;br&gt;配&lt;br&gt;置&lt;br&gt;人&lt;br&gt;群" style="rounded=0;whiteSpace=wrap;html=1;" vertex="1" parent="1">
          <mxGeometry x="530" y="520" width="20" height="120" as="geometry" />
        </mxCell>
        <mxCell id="1S4eVNWtwclJiUYLLemy-41" value="搜&lt;br&gt;索&lt;br&gt;推&lt;br&gt;送&lt;br&gt;明&lt;br&gt;细&lt;br&gt;列&lt;br&gt;表" style="rounded=0;whiteSpace=wrap;html=1;" vertex="1" parent="1">
          <mxGeometry x="560" y="520" width="20" height="120" as="geometry" />
        </mxCell>
        <mxCell id="1S4eVNWtwclJiUYLLemy-42" value="重&lt;br&gt;新&lt;br&gt;推&lt;br&gt;送&lt;br&gt;明&lt;br&gt;细&lt;br&gt;记&lt;br&gt;录" style="rounded=0;whiteSpace=wrap;html=1;" vertex="1" parent="1">
          <mxGeometry x="590" y="520" width="20" height="120" as="geometry" />
        </mxCell>
        <mxCell id="1S4eVNWtwclJiUYLLemy-43" value="查&lt;br&gt;看&lt;br&gt;推&lt;br&gt;送&lt;br&gt;明&lt;br&gt;细&lt;br&gt;详&lt;br&gt;情" style="rounded=0;whiteSpace=wrap;html=1;" vertex="1" parent="1">
          <mxGeometry x="620" y="520" width="20" height="120" as="geometry" />
        </mxCell>
        <mxCell id="1S4eVNWtwclJiUYLLemy-44" value="查&lt;br&gt;看&lt;br&gt;推&lt;br&gt;送&lt;br&gt;明&lt;br&gt;细&lt;br&gt;历&lt;br&gt;史" style="rounded=0;whiteSpace=wrap;html=1;" vertex="1" parent="1">
          <mxGeometry x="650" y="520" width="20" height="120" as="geometry" />
        </mxCell>
        <mxCell id="1S4eVNWtwclJiUYLLemy-45" value="暂&lt;br&gt;停&lt;br&gt;推&lt;br&gt;送" style="rounded=0;whiteSpace=wrap;html=1;" vertex="1" parent="1">
          <mxGeometry x="680" y="520" width="20" height="120" as="geometry" />
        </mxCell>
        <mxCell id="1S4eVNWtwclJiUYLLemy-46" value="启&lt;br&gt;动&lt;br&gt;推&lt;br&gt;送" style="rounded=0;whiteSpace=wrap;html=1;" vertex="1" parent="1">
          <mxGeometry x="710" y="520" width="20" height="120" as="geometry" />
        </mxCell>
        <mxCell id="1S4eVNWtwclJiUYLLemy-47" value="搜&lt;br&gt;索&lt;br&gt;推&lt;br&gt;送&lt;br&gt;明&lt;br&gt;细&lt;br&gt;列&lt;br&gt;表" style="rounded=0;whiteSpace=wrap;html=1;" vertex="1" parent="1">
          <mxGeometry x="750" y="520" width="20" height="120" as="geometry" />
        </mxCell>
        <mxCell id="1S4eVNWtwclJiUYLLemy-48" value="重&lt;br&gt;新&lt;br&gt;推&lt;br&gt;送&lt;br&gt;明&lt;br&gt;细&lt;br&gt;记&lt;br&gt;录" style="rounded=0;whiteSpace=wrap;html=1;" vertex="1" parent="1">
          <mxGeometry x="780" y="520" width="20" height="120" as="geometry" />
        </mxCell>
        <mxCell id="1S4eVNWtwclJiUYLLemy-49" value="查&lt;br&gt;看&lt;br&gt;推&lt;br&gt;送&lt;br&gt;明&lt;br&gt;细&lt;br&gt;详&lt;br&gt;情" style="rounded=0;whiteSpace=wrap;html=1;" vertex="1" parent="1">
          <mxGeometry x="810" y="520" width="20" height="120" as="geometry" />
        </mxCell>
        <mxCell id="1S4eVNWtwclJiUYLLemy-50" value="查&lt;br&gt;看&lt;br&gt;推&lt;br&gt;送&lt;br&gt;明&lt;br&gt;细&lt;br&gt;历&lt;br&gt;史" style="rounded=0;whiteSpace=wrap;html=1;" vertex="1" parent="1">
          <mxGeometry x="840" y="520" width="20" height="120" as="geometry" />
        </mxCell>
        <mxCell id="1S4eVNWtwclJiUYLLemy-51" value="暂&lt;br&gt;停&lt;br&gt;推&lt;br&gt;送" style="rounded=0;whiteSpace=wrap;html=1;" vertex="1" parent="1">
          <mxGeometry x="870" y="520" width="20" height="120" as="geometry" />
        </mxCell>
        <mxCell id="1S4eVNWtwclJiUYLLemy-52" value="启&lt;br&gt;动&lt;br&gt;推&lt;br&gt;送" style="rounded=0;whiteSpace=wrap;html=1;" vertex="1" parent="1">
          <mxGeometry x="900" y="520" width="20" height="120" as="geometry" />
        </mxCell>
        <mxCell id="1S4eVNWtwclJiUYLLemy-53" value="推&lt;br&gt;送&lt;br&gt;营&lt;br&gt;销人&lt;br&gt;群" style="rounded=0;whiteSpace=wrap;html=1;" vertex="1" parent="1">
          <mxGeometry x="930" y="520" width="20" height="120" as="geometry" />
        </mxCell>
        <mxCell id="1S4eVNWtwclJiUYLLemy-54" value="" style="endArrow=none;html=1;rounded=0;fontFamily=Helvetica;fontSize=12;entryX=0.5;entryY=1;entryDx=0;entryDy=0;exitX=0.5;exitY=0;exitDx=0;exitDy=0;" edge="1" parent="1" source="1S4eVNWtwclJiUYLLemy-13" target="1S4eVNWtwclJiUYLLemy-2">
          <mxGeometry width="50" height="50" relative="1" as="geometry">
            <mxPoint x="490" y="410" as="sourcePoint" />
            <mxPoint x="540" y="360" as="targetPoint" />
            <Array as="points">
              <mxPoint x="270" y="310" />
              <mxPoint x="190" y="310" />
            </Array>
          </mxGeometry>
        </mxCell>
        <mxCell id="1S4eVNWtwclJiUYLLemy-55" value="" style="endArrow=none;html=1;rounded=0;fontFamily=Helvetica;fontSize=12;entryX=0.5;entryY=1;entryDx=0;entryDy=0;exitX=0.5;exitY=0;exitDx=0;exitDy=0;" edge="1" parent="1" source="1S4eVNWtwclJiUYLLemy-12" target="1S4eVNWtwclJiUYLLemy-2">
          <mxGeometry width="50" height="50" relative="1" as="geometry">
            <mxPoint x="280" y="350" as="sourcePoint" />
            <mxPoint x="200" y="300" as="targetPoint" />
            <Array as="points">
              <mxPoint x="100" y="310" />
              <mxPoint x="190" y="310" />
            </Array>
          </mxGeometry>
        </mxCell>
        <mxCell id="1S4eVNWtwclJiUYLLemy-56" value="" style="endArrow=none;html=1;rounded=0;fontFamily=Helvetica;fontSize=12;entryX=0.5;entryY=1;entryDx=0;entryDy=0;exitX=0.5;exitY=0;exitDx=0;exitDy=0;" edge="1" parent="1" source="1S4eVNWtwclJiUYLLemy-19" target="1S4eVNWtwclJiUYLLemy-4">
          <mxGeometry width="50" height="50" relative="1" as="geometry">
            <mxPoint x="290" y="360" as="sourcePoint" />
            <mxPoint x="210" y="310" as="targetPoint" />
            <Array as="points">
              <mxPoint x="470" y="310" />
              <mxPoint x="550" y="310" />
            </Array>
          </mxGeometry>
        </mxCell>
        <mxCell id="1S4eVNWtwclJiUYLLemy-57" value="" style="endArrow=none;html=1;rounded=0;fontFamily=Helvetica;fontSize=12;exitX=0.5;exitY=1;exitDx=0;exitDy=0;entryX=0.5;entryY=0;entryDx=0;entryDy=0;" edge="1" parent="1" source="1S4eVNWtwclJiUYLLemy-4" target="1S4eVNWtwclJiUYLLemy-15">
          <mxGeometry width="50" height="50" relative="1" as="geometry">
            <mxPoint x="300" y="370" as="sourcePoint" />
            <mxPoint x="190" y="290" as="targetPoint" />
            <Array as="points">
              <mxPoint x="550" y="310" />
              <mxPoint x="640" y="310" />
            </Array>
          </mxGeometry>
        </mxCell>
        <mxCell id="1S4eVNWtwclJiUYLLemy-58" value="" style="endArrow=none;html=1;rounded=0;fontFamily=Helvetica;fontSize=12;entryX=0.5;entryY=1;entryDx=0;entryDy=0;exitX=0.5;exitY=0;exitDx=0;exitDy=0;" edge="1" parent="1" source="1S4eVNWtwclJiUYLLemy-20" target="1S4eVNWtwclJiUYLLemy-3">
          <mxGeometry width="50" height="50" relative="1" as="geometry">
            <mxPoint x="310" y="380" as="sourcePoint" />
            <mxPoint x="230" y="330" as="targetPoint" />
            <Array as="points">
              <mxPoint x="840" y="310" />
              <mxPoint x="890" y="310" />
            </Array>
          </mxGeometry>
        </mxCell>
        <mxCell id="1S4eVNWtwclJiUYLLemy-59" value="" style="endArrow=none;html=1;rounded=0;fontFamily=Helvetica;fontSize=12;entryX=0.5;entryY=1;entryDx=0;entryDy=0;exitX=0.5;exitY=0;exitDx=0;exitDy=0;" edge="1" parent="1" source="1S4eVNWtwclJiUYLLemy-17" target="1S4eVNWtwclJiUYLLemy-3">
          <mxGeometry width="50" height="50" relative="1" as="geometry">
            <mxPoint x="320" y="390" as="sourcePoint" />
            <mxPoint x="240" y="340" as="targetPoint" />
            <Array as="points">
              <mxPoint x="940" y="310" />
              <mxPoint x="890" y="310" />
            </Array>
          </mxGeometry>
        </mxCell>
        <mxCell id="1S4eVNWtwclJiUYLLemy-60" value="" style="endArrow=none;html=1;rounded=0;fontFamily=Helvetica;fontSize=12;entryX=0.5;entryY=1;entryDx=0;entryDy=0;exitX=0.5;exitY=0;exitDx=0;exitDy=0;" edge="1" parent="1" source="1S4eVNWtwclJiUYLLemy-21" target="1S4eVNWtwclJiUYLLemy-12">
          <mxGeometry width="50" height="50" relative="1" as="geometry">
            <mxPoint x="330" y="400" as="sourcePoint" />
            <mxPoint x="250" y="350" as="targetPoint" />
            <Array as="points">
              <mxPoint x="20" y="480" />
              <mxPoint x="100" y="480" />
            </Array>
          </mxGeometry>
        </mxCell>
        <mxCell id="1S4eVNWtwclJiUYLLemy-63" value="" style="endArrow=none;html=1;rounded=0;fontFamily=Helvetica;fontSize=12;entryX=0.5;entryY=1;entryDx=0;entryDy=0;" edge="1" parent="1" target="1S4eVNWtwclJiUYLLemy-13">
          <mxGeometry width="50" height="50" relative="1" as="geometry">
            <mxPoint x="200" y="520" as="sourcePoint" />
            <mxPoint x="540" y="510" as="targetPoint" />
            <Array as="points">
              <mxPoint x="200" y="480" />
              <mxPoint x="270" y="480" />
            </Array>
          </mxGeometry>
        </mxCell>
        <mxCell id="1S4eVNWtwclJiUYLLemy-68" value="" style="endArrow=none;html=1;rounded=0;fontFamily=Helvetica;fontSize=12;entryX=0.5;entryY=1;entryDx=0;entryDy=0;exitX=0.5;exitY=0;exitDx=0;exitDy=0;" edge="1" parent="1" source="1S4eVNWtwclJiUYLLemy-35">
          <mxGeometry width="50" height="50" relative="1" as="geometry">
            <mxPoint x="400" y="520" as="sourcePoint" />
            <mxPoint x="470" y="460" as="targetPoint" />
            <Array as="points">
              <mxPoint x="390" y="480" />
              <mxPoint x="470" y="480" />
            </Array>
          </mxGeometry>
        </mxCell>
        <mxCell id="1S4eVNWtwclJiUYLLemy-69" value="" style="endArrow=none;html=1;rounded=0;fontFamily=Helvetica;fontSize=12;entryX=0.5;entryY=1;entryDx=0;entryDy=0;edgeStyle=elbowEdgeStyle;elbow=vertical;exitX=0.5;exitY=0;exitDx=0;exitDy=0;" edge="1" parent="1" source="1S4eVNWtwclJiUYLLemy-23">
          <mxGeometry width="50" height="50" relative="1" as="geometry">
            <mxPoint x="30" y="520" as="sourcePoint" />
            <mxPoint x="100" y="460" as="targetPoint" />
            <Array as="points">
              <mxPoint x="60" y="480" />
            </Array>
          </mxGeometry>
        </mxCell>
        <mxCell id="1S4eVNWtwclJiUYLLemy-71" value="" style="endArrow=none;html=1;rounded=0;fontFamily=Helvetica;fontSize=12;entryX=0.5;entryY=1;entryDx=0;entryDy=0;edgeStyle=elbowEdgeStyle;elbow=vertical;" edge="1" parent="1" target="1S4eVNWtwclJiUYLLemy-12">
          <mxGeometry width="50" height="50" relative="1" as="geometry">
            <mxPoint x="80" y="520" as="sourcePoint" />
            <mxPoint x="150" y="460" as="targetPoint" />
            <Array as="points">
              <mxPoint x="90" y="480" />
            </Array>
          </mxGeometry>
        </mxCell>
        <mxCell id="1S4eVNWtwclJiUYLLemy-73" value="" style="endArrow=none;html=1;rounded=0;fontFamily=Helvetica;fontSize=12;edgeStyle=elbowEdgeStyle;elbow=vertical;entryX=0.5;entryY=1;entryDx=0;entryDy=0;" edge="1" parent="1" target="1S4eVNWtwclJiUYLLemy-12">
          <mxGeometry width="50" height="50" relative="1" as="geometry">
            <mxPoint x="110" y="520" as="sourcePoint" />
            <mxPoint x="130" y="460" as="targetPoint" />
            <Array as="points">
              <mxPoint x="120" y="480" />
            </Array>
          </mxGeometry>
        </mxCell>
        <mxCell id="1S4eVNWtwclJiUYLLemy-74" value="" style="endArrow=none;html=1;rounded=0;fontFamily=Helvetica;fontSize=12;edgeStyle=elbowEdgeStyle;elbow=vertical;entryX=0.5;entryY=1;entryDx=0;entryDy=0;" edge="1" parent="1" target="1S4eVNWtwclJiUYLLemy-12">
          <mxGeometry width="50" height="50" relative="1" as="geometry">
            <mxPoint x="140" y="520" as="sourcePoint" />
            <mxPoint x="140" y="460" as="targetPoint" />
            <Array as="points">
              <mxPoint x="160" y="480" />
            </Array>
          </mxGeometry>
        </mxCell>
        <mxCell id="1S4eVNWtwclJiUYLLemy-75" value="" style="endArrow=none;html=1;rounded=0;fontFamily=Helvetica;fontSize=12;edgeStyle=elbowEdgeStyle;elbow=vertical;entryX=0.5;entryY=1;entryDx=0;entryDy=0;" edge="1" parent="1" target="1S4eVNWtwclJiUYLLemy-12">
          <mxGeometry width="50" height="50" relative="1" as="geometry">
            <mxPoint x="169.41" y="520" as="sourcePoint" />
            <mxPoint x="169.41" y="460" as="targetPoint" />
            <Array as="points">
              <mxPoint x="130" y="480" />
            </Array>
          </mxGeometry>
        </mxCell>
        <mxCell id="1S4eVNWtwclJiUYLLemy-76" value="" style="endArrow=none;html=1;rounded=0;fontFamily=Helvetica;fontSize=12;edgeStyle=elbowEdgeStyle;elbow=vertical;entryX=0.5;entryY=1;entryDx=0;entryDy=0;" edge="1" parent="1" target="1S4eVNWtwclJiUYLLemy-13">
          <mxGeometry width="50" height="50" relative="1" as="geometry">
            <mxPoint x="229.41" y="520" as="sourcePoint" />
            <mxPoint x="229.41" y="460" as="targetPoint" />
            <Array as="points">
              <mxPoint x="249.41" y="480" />
            </Array>
          </mxGeometry>
        </mxCell>
        <mxCell id="1S4eVNWtwclJiUYLLemy-77" value="" style="endArrow=none;html=1;rounded=0;fontFamily=Helvetica;fontSize=12;edgeStyle=elbowEdgeStyle;elbow=vertical;entryX=0.5;entryY=1;entryDx=0;entryDy=0;" edge="1" parent="1" target="1S4eVNWtwclJiUYLLemy-13">
          <mxGeometry width="50" height="50" relative="1" as="geometry">
            <mxPoint x="259.40999999999997" y="520" as="sourcePoint" />
            <mxPoint x="259.40999999999997" y="460" as="targetPoint" />
            <Array as="points">
              <mxPoint x="279.40999999999997" y="480" />
            </Array>
          </mxGeometry>
        </mxCell>
        <mxCell id="1S4eVNWtwclJiUYLLemy-78" value="" style="endArrow=none;html=1;rounded=0;fontFamily=Helvetica;fontSize=12;edgeStyle=elbowEdgeStyle;elbow=vertical;entryX=0.5;entryY=1;entryDx=0;entryDy=0;" edge="1" parent="1" target="1S4eVNWtwclJiUYLLemy-13">
          <mxGeometry width="50" height="50" relative="1" as="geometry">
            <mxPoint x="289.40999999999997" y="520" as="sourcePoint" />
            <mxPoint x="289.40999999999997" y="460" as="targetPoint" />
            <Array as="points">
              <mxPoint x="309.40999999999997" y="480" />
            </Array>
          </mxGeometry>
        </mxCell>
        <mxCell id="1S4eVNWtwclJiUYLLemy-79" value="" style="endArrow=none;html=1;rounded=0;fontFamily=Helvetica;fontSize=12;edgeStyle=elbowEdgeStyle;elbow=vertical;entryX=0.5;entryY=1;entryDx=0;entryDy=0;" edge="1" parent="1" target="1S4eVNWtwclJiUYLLemy-13">
          <mxGeometry width="50" height="50" relative="1" as="geometry">
            <mxPoint x="319.40999999999985" y="520" as="sourcePoint" />
            <mxPoint x="319.40999999999985" y="460" as="targetPoint" />
            <Array as="points">
              <mxPoint x="339.40999999999997" y="480" />
            </Array>
          </mxGeometry>
        </mxCell>
        <mxCell id="1S4eVNWtwclJiUYLLemy-80" value="" style="endArrow=none;html=1;rounded=0;fontFamily=Helvetica;fontSize=12;edgeStyle=elbowEdgeStyle;elbow=vertical;entryX=0.5;entryY=1;entryDx=0;entryDy=0;" edge="1" parent="1" target="1S4eVNWtwclJiUYLLemy-13">
          <mxGeometry width="50" height="50" relative="1" as="geometry">
            <mxPoint x="349.40999999999985" y="520" as="sourcePoint" />
            <mxPoint x="349.40999999999985" y="460" as="targetPoint" />
            <Array as="points">
              <mxPoint x="369.40999999999997" y="480" />
            </Array>
          </mxGeometry>
        </mxCell>
        <mxCell id="1S4eVNWtwclJiUYLLemy-81" value="" style="endArrow=none;html=1;rounded=0;fontFamily=Helvetica;fontSize=12;edgeStyle=elbowEdgeStyle;elbow=vertical;entryX=0.5;entryY=1;entryDx=0;entryDy=0;" edge="1" parent="1" target="1S4eVNWtwclJiUYLLemy-19">
          <mxGeometry width="50" height="50" relative="1" as="geometry">
            <mxPoint x="419.40999999999985" y="520" as="sourcePoint" />
            <mxPoint x="419.40999999999985" y="460" as="targetPoint" />
            <Array as="points">
              <mxPoint x="440" y="480" />
            </Array>
          </mxGeometry>
        </mxCell>
        <mxCell id="1S4eVNWtwclJiUYLLemy-82" value="" style="endArrow=none;html=1;rounded=0;fontFamily=Helvetica;fontSize=12;edgeStyle=elbowEdgeStyle;elbow=vertical;entryX=0.5;entryY=1;entryDx=0;entryDy=0;" edge="1" parent="1" target="1S4eVNWtwclJiUYLLemy-19">
          <mxGeometry width="50" height="50" relative="1" as="geometry">
            <mxPoint x="449.40999999999985" y="520" as="sourcePoint" />
            <mxPoint x="449.40999999999985" y="460" as="targetPoint" />
            <Array as="points">
              <mxPoint x="460" y="480" />
            </Array>
          </mxGeometry>
        </mxCell>
        <mxCell id="1S4eVNWtwclJiUYLLemy-83" value="" style="endArrow=none;html=1;rounded=0;fontFamily=Helvetica;fontSize=12;edgeStyle=elbowEdgeStyle;elbow=vertical;" edge="1" parent="1">
          <mxGeometry width="50" height="50" relative="1" as="geometry">
            <mxPoint x="479.40999999999985" y="520" as="sourcePoint" />
            <mxPoint x="470" y="450" as="targetPoint" />
            <Array as="points">
              <mxPoint x="480" y="480" />
            </Array>
          </mxGeometry>
        </mxCell>
        <mxCell id="1S4eVNWtwclJiUYLLemy-84" value="" style="endArrow=none;html=1;rounded=0;fontFamily=Helvetica;fontSize=12;edgeStyle=elbowEdgeStyle;elbow=vertical;" edge="1" parent="1">
          <mxGeometry width="50" height="50" relative="1" as="geometry">
            <mxPoint x="509.40999999999985" y="520" as="sourcePoint" />
            <mxPoint x="470" y="460" as="targetPoint" />
            <Array as="points">
              <mxPoint x="490" y="480" />
            </Array>
          </mxGeometry>
        </mxCell>
        <mxCell id="1S4eVNWtwclJiUYLLemy-85" value="" style="endArrow=none;html=1;rounded=0;fontFamily=Helvetica;fontSize=12;edgeStyle=elbowEdgeStyle;elbow=vertical;entryX=0.5;entryY=1;entryDx=0;entryDy=0;" edge="1" parent="1" target="1S4eVNWtwclJiUYLLemy-19">
          <mxGeometry width="50" height="50" relative="1" as="geometry">
            <mxPoint x="539.4099999999999" y="520" as="sourcePoint" />
            <mxPoint x="539.4099999999999" y="460" as="targetPoint" />
            <Array as="points">
              <mxPoint x="500" y="480" />
            </Array>
          </mxGeometry>
        </mxCell>
        <mxCell id="1S4eVNWtwclJiUYLLemy-86" value="" style="endArrow=none;html=1;rounded=0;fontFamily=Helvetica;fontSize=12;edgeStyle=elbowEdgeStyle;elbow=vertical;entryX=0.5;entryY=1;entryDx=0;entryDy=0;" edge="1" parent="1" target="1S4eVNWtwclJiUYLLemy-15">
          <mxGeometry width="50" height="50" relative="1" as="geometry">
            <mxPoint x="569.4099999999999" y="520" as="sourcePoint" />
            <mxPoint x="569.4099999999999" y="460" as="targetPoint" />
            <Array as="points">
              <mxPoint x="600" y="480" />
            </Array>
          </mxGeometry>
        </mxCell>
        <mxCell id="1S4eVNWtwclJiUYLLemy-87" value="" style="endArrow=none;html=1;rounded=0;fontFamily=Helvetica;fontSize=12;edgeStyle=elbowEdgeStyle;elbow=vertical;entryX=0.5;entryY=1;entryDx=0;entryDy=0;" edge="1" parent="1" target="1S4eVNWtwclJiUYLLemy-15">
          <mxGeometry width="50" height="50" relative="1" as="geometry">
            <mxPoint x="599.4099999999999" y="520" as="sourcePoint" />
            <mxPoint x="599.4099999999999" y="460" as="targetPoint" />
            <Array as="points">
              <mxPoint x="620" y="480" />
            </Array>
          </mxGeometry>
        </mxCell>
        <mxCell id="1S4eVNWtwclJiUYLLemy-88" value="" style="endArrow=none;html=1;rounded=0;fontFamily=Helvetica;fontSize=12;edgeStyle=elbowEdgeStyle;elbow=vertical;entryX=0.5;entryY=1;entryDx=0;entryDy=0;" edge="1" parent="1" target="1S4eVNWtwclJiUYLLemy-15">
          <mxGeometry width="50" height="50" relative="1" as="geometry">
            <mxPoint x="629.4099999999999" y="520" as="sourcePoint" />
            <mxPoint x="629.4099999999999" y="460" as="targetPoint" />
            <Array as="points">
              <mxPoint x="630" y="480" />
            </Array>
          </mxGeometry>
        </mxCell>
        <mxCell id="1S4eVNWtwclJiUYLLemy-89" value="" style="endArrow=none;html=1;rounded=0;fontFamily=Helvetica;fontSize=12;edgeStyle=elbowEdgeStyle;elbow=vertical;entryX=0.5;entryY=1;entryDx=0;entryDy=0;" edge="1" parent="1" target="1S4eVNWtwclJiUYLLemy-15">
          <mxGeometry width="50" height="50" relative="1" as="geometry">
            <mxPoint x="659.9999999999999" y="520" as="sourcePoint" />
            <mxPoint x="659.9999999999999" y="460" as="targetPoint" />
            <Array as="points">
              <mxPoint x="650" y="480" />
            </Array>
          </mxGeometry>
        </mxCell>
        <mxCell id="1S4eVNWtwclJiUYLLemy-90" value="" style="endArrow=none;html=1;rounded=0;fontFamily=Helvetica;fontSize=12;edgeStyle=elbowEdgeStyle;elbow=vertical;entryX=0.5;entryY=1;entryDx=0;entryDy=0;" edge="1" parent="1" target="1S4eVNWtwclJiUYLLemy-15">
          <mxGeometry width="50" height="50" relative="1" as="geometry">
            <mxPoint x="689.4099999999999" y="520" as="sourcePoint" />
            <mxPoint x="689.4099999999999" y="460" as="targetPoint" />
            <Array as="points">
              <mxPoint x="660" y="480" />
            </Array>
          </mxGeometry>
        </mxCell>
        <mxCell id="1S4eVNWtwclJiUYLLemy-91" value="" style="endArrow=none;html=1;rounded=0;fontFamily=Helvetica;fontSize=12;edgeStyle=elbowEdgeStyle;elbow=vertical;entryX=0.5;entryY=1;entryDx=0;entryDy=0;" edge="1" parent="1" target="1S4eVNWtwclJiUYLLemy-15">
          <mxGeometry width="50" height="50" relative="1" as="geometry">
            <mxPoint x="719.4099999999999" y="520" as="sourcePoint" />
            <mxPoint x="719.4099999999999" y="460" as="targetPoint" />
            <Array as="points">
              <mxPoint x="680" y="480" />
            </Array>
          </mxGeometry>
        </mxCell>
        <mxCell id="1S4eVNWtwclJiUYLLemy-92" value="" style="endArrow=none;html=1;rounded=0;fontFamily=Helvetica;fontSize=12;edgeStyle=elbowEdgeStyle;elbow=vertical;entryX=0.5;entryY=1;entryDx=0;entryDy=0;" edge="1" parent="1" target="1S4eVNWtwclJiUYLLemy-20">
          <mxGeometry width="50" height="50" relative="1" as="geometry">
            <mxPoint x="759.4099999999999" y="520" as="sourcePoint" />
            <mxPoint x="759.4099999999999" y="460" as="targetPoint" />
            <Array as="points">
              <mxPoint x="800" y="480" />
            </Array>
          </mxGeometry>
        </mxCell>
        <mxCell id="1S4eVNWtwclJiUYLLemy-93" value="" style="endArrow=none;html=1;rounded=0;fontFamily=Helvetica;fontSize=12;edgeStyle=elbowEdgeStyle;elbow=vertical;entryX=0.5;entryY=1;entryDx=0;entryDy=0;" edge="1" parent="1" target="1S4eVNWtwclJiUYLLemy-20">
          <mxGeometry width="50" height="50" relative="1" as="geometry">
            <mxPoint x="789.4099999999999" y="520" as="sourcePoint" />
            <mxPoint x="789.4099999999999" y="460" as="targetPoint" />
            <Array as="points">
              <mxPoint x="810" y="480" />
            </Array>
          </mxGeometry>
        </mxCell>
        <mxCell id="1S4eVNWtwclJiUYLLemy-94" value="" style="endArrow=none;html=1;rounded=0;fontFamily=Helvetica;fontSize=12;edgeStyle=elbowEdgeStyle;elbow=vertical;entryX=0.5;entryY=1;entryDx=0;entryDy=0;" edge="1" parent="1" target="1S4eVNWtwclJiUYLLemy-20">
          <mxGeometry width="50" height="50" relative="1" as="geometry">
            <mxPoint x="819.4099999999999" y="520" as="sourcePoint" />
            <mxPoint x="819.4099999999999" y="460" as="targetPoint" />
            <Array as="points">
              <mxPoint x="830" y="480" />
            </Array>
          </mxGeometry>
        </mxCell>
        <mxCell id="1S4eVNWtwclJiUYLLemy-95" value="" style="endArrow=none;html=1;rounded=0;fontFamily=Helvetica;fontSize=12;edgeStyle=elbowEdgeStyle;elbow=vertical;entryX=0.5;entryY=1;entryDx=0;entryDy=0;" edge="1" parent="1" target="1S4eVNWtwclJiUYLLemy-20">
          <mxGeometry width="50" height="50" relative="1" as="geometry">
            <mxPoint x="849.4099999999999" y="520" as="sourcePoint" />
            <mxPoint x="849.4099999999999" y="460" as="targetPoint" />
            <Array as="points">
              <mxPoint x="840" y="480" />
            </Array>
          </mxGeometry>
        </mxCell>
        <mxCell id="1S4eVNWtwclJiUYLLemy-96" value="" style="endArrow=none;html=1;rounded=0;fontFamily=Helvetica;fontSize=12;edgeStyle=elbowEdgeStyle;elbow=vertical;entryX=0.5;entryY=1;entryDx=0;entryDy=0;" edge="1" parent="1" target="1S4eVNWtwclJiUYLLemy-20">
          <mxGeometry width="50" height="50" relative="1" as="geometry">
            <mxPoint x="879.4099999999999" y="520" as="sourcePoint" />
            <mxPoint x="879.4099999999999" y="460" as="targetPoint" />
            <Array as="points">
              <mxPoint x="860" y="480" />
            </Array>
          </mxGeometry>
        </mxCell>
        <mxCell id="1S4eVNWtwclJiUYLLemy-97" value="" style="endArrow=none;html=1;rounded=0;fontFamily=Helvetica;fontSize=12;edgeStyle=elbowEdgeStyle;elbow=vertical;entryX=0.5;entryY=1;entryDx=0;entryDy=0;" edge="1" parent="1" target="1S4eVNWtwclJiUYLLemy-20">
          <mxGeometry width="50" height="50" relative="1" as="geometry">
            <mxPoint x="909.4099999999999" y="520" as="sourcePoint" />
            <mxPoint x="909.4099999999999" y="460" as="targetPoint" />
            <Array as="points">
              <mxPoint x="880" y="480" />
            </Array>
          </mxGeometry>
        </mxCell>
        <mxCell id="1S4eVNWtwclJiUYLLemy-98" value="" style="endArrow=none;html=1;rounded=0;fontFamily=Helvetica;fontSize=12;edgeStyle=elbowEdgeStyle;elbow=vertical;" edge="1" parent="1">
          <mxGeometry width="50" height="50" relative="1" as="geometry">
            <mxPoint x="939.4099999999999" y="520" as="sourcePoint" />
            <mxPoint x="939.4099999999999" y="460" as="targetPoint" />
            <Array as="points" />
          </mxGeometry>
        </mxCell>
      </root>
    </mxGraphModel>
  </diagram>
</mxfile>
